<?xml version="1.0" encoding="utf-8"?>
<!-- Generator: Adobe Illustrator 25.2.3, SVG Export Plug-In . SVG Version: 6.00 Build 0)  -->
<svg version="1.1" id="レイヤー_1" xmlns="http://www.w3.org/2000/svg" xmlns:xlink="http://www.w3.org/1999/xlink" x="0px"
	 y="0px" viewBox="0 0 841.89 595.28" style="enable-background:new 0 0 841.89 595.28;" xml:space="preserve">
<style type="text/css">
	.st0{fill:none;}
	.st1{fill:#00913A;}
	.st2{fill-rule:evenodd;clip-rule:evenodd;fill:#00913A;}
</style>
<rect x="167.81" y="45.25" class="st0" width="505.53" height="505.53"/>
<g>
	<path class="st1" d="M420.58,447.22c-82.28,0-149.21-66.94-149.21-149.21S338.3,148.8,420.58,148.8s149.21,66.93,149.21,149.21
		S502.85,447.22,420.58,447.22z M420.58,159.46c-76.4,0-138.55,62.15-138.55,138.55s62.15,138.55,138.55,138.55
		s138.55-62.15,138.55-138.55S496.97,159.46,420.58,159.46z"/>
	<g>
		<path class="st2" d="M417.59,202.38c2,0,4.01,0,6.01,0c0,2,0,4.01,0,6.01c2,0,4.01,0,6.01,0c0,2,0,4.01,0,6.01c2,0,4.01,0,6.01,0
			c0,6.01,0,12.03,0,18.04c2,0,4.01,0,6.01,0c0,6.01,0,12.03,0,18.04c-2,0-4.01,0-6.01,0c0,2,0,4.01,0,6.01c-2,0-4.01,0-6.01,0
			c0,4.01,0,8.02,0,12.03c-2,0-4.01,0-6.01,0c0,2,0,4.01,0,6.01c-2,0-4.01,0-6.01,0c0-4.01,0-8.02,0-12.03c-2,0-4.01,0-6.01,0
			c0-2,0-4.01,0-6.01c-2,0-4.01,0-6.01,0c0-4.01,0-8.02,0-12.03c-2,0-4.01,0-6.01,0c0-4.01,0-8.02,0-12.03c2,0,4.01,0,6.01,0
			c0-4.01,0-8.02,0-12.03c2,0,4.01,0,6.01,0c0-4.01,0-8.02,0-12.03c2,0,4.01,0,6.01,0C417.59,206.39,417.59,204.38,417.59,202.38z"
			/>
		<path class="st2" d="M339.43,238.46c12.02,0,24.05,0,36.08,0c0,2,0,4.01,0,6.01c4.01,0,8.02,0,12.03,0c0,2,0,4.01,0,6.01
			c2,0,4.01,0,6.01,0c0,2,0,4.01,0,6.01c2,0,4.01,0,6.01,0c0,2,0,4.01,0,6.01c2,0,4.01,0,6.01,0c0,4.01,0,8.02,0,12.03
			c2,0,4.01,0,6.01,0c0,8.02,0,16.03,0,24.05c-4.01,0-8.02,0-12.03,0c0-2,0-4.01,0-6.01c-2,0-4.01,0-6.01,0c0-2,0-4.01,0-6.01
			c-4.01,0-8.02,0-12.03,0c0-2,0-4.01,0-6.01c-2,0-4.01,0-6.01,0c0-2,0-4.01,0-6.01c-2,0-4.01,0-6.01,0c0-2,0-4.01,0-6.01
			c-2,0-4.01,0-6.01,0c0-2,0-4.01,0-6.01c-2,0-4.01,0-6.01,0c0-2,0-4.01,0-6.01c-2,0-4.01,0-6.01,0c0-2,0-4.01,0-6.01
			c-2,0-4.01,0-6.01,0c0-2,0-4.01,0-6.01c-2,0-4.01,0-6.01,0C339.43,242.46,339.43,240.46,339.43,238.46z"/>
		<path class="st2" d="M465.69,238.46c12.02,0,24.05,0,36.08,0c0,2,0,4.01,0,6.01c-2,0-4.01,0-6.01,0c0,4.01,0,8.02,0,12.03
			c-2,0-4.01,0-6.01,0c0,2,0,4.01,0,6.01c-2,0-4.01,0-6.01,0c0,2,0,4.01,0,6.01c-4.01,0-8.02,0-12.03,0c0,2,0,4.01,0,6.01
			c-2,0-4.01,0-6.01,0c0,2,0,4.01,0,6.01c-2,0-4.01,0-6.01,0c0,2,0,4.01,0,6.01c-4.01,0-8.02,0-12.03,0c0,2,0,4.01,0,6.01
			c-2,0-4.01,0-6.01,0c0,2,0,4.01,0,6.01c-4.01,0-8.02,0-12.03,0c0-6.01,0-12.03,0-18.04c2,0,4.01,0,6.01,0c0-6.01,0-12.03,0-18.04
			c2,0,4.01,0,6.01,0c0-2,0-4.01,0-6.01c2,0,4.01,0,6.01,0c0-2,0-4.01,0-6.01c2,0,4.01,0,6.01,0c0-2,0-4.01,0-6.01
			c4.01,0,8.02,0,12.03,0C465.69,242.46,465.69,240.46,465.69,238.46z"/>
		<path class="st2" d="M327.41,292.57c16.03,0,32.07,0,48.1,0c0,2,0,4.01,0,6.01c4.01,0,8.02,0,12.03,0c0,2,0,4.01,0,6.01
			c4.01,0,8.02,0,12.03,0c0,2,0,4.01,0,6.01c2,0,4.01,0,6.01,0c0,2,0,4.01,0,6.01c2,0,4.01,0,6.01,0c0,4.01,0,8.02,0,12.03
			c-14.03,0-28.06,0-42.09,0c0-2,0-4.01,0-6.01c-4.01,0-8.02,0-12.03,0c0-2,0-4.01,0-6.01c-4.01,0-8.02,0-12.03,0c0-2,0-4.01,0-6.01
			c-4.01,0-8.02,0-12.03,0c0-2,0-4.01,0-6.01c-2,0-4.01,0-6.01,0C327.41,300.59,327.41,296.58,327.41,292.57z"/>
		<path class="st2" d="M465.69,292.57c18.04,0,36.08,0,54.11,0c0,2,0,4.01,0,6.01c-2,0-4.01,0-6.01,0c0,2,0,4.01,0,6.01
			c-2,0-4.01,0-6.01,0c0,2,0,4.01,0,6.01c-4.01,0-8.02,0-12.03,0c0,2,0,4.01,0,6.01c-4.01,0-8.02,0-12.03,0c0,2,0,4.01,0,6.01
			c-4.01,0-8.02,0-12.03,0c0,2,0,4.01,0,6.01c-14.03,0-28.06,0-42.09,0c0-4.01,0-8.02,0-12.03c2,0,4.01,0,6.01,0c0-2,0-4.01,0-6.01
			c2,0,4.01,0,6.01,0c0-2,0-4.01,0-6.01c4.01,0,8.02,0,12.03,0c0-2,0-4.01,0-6.01c4.01,0,8.02,0,12.03,0
			C465.69,296.58,465.69,294.57,465.69,292.57z"/>
		<path class="st2" d="M357.47,340.67c10.02,0,20.04,0,30.06,0c0,4.01,0,8.02,0,12.03c2,0,4.01,0,6.01,0c0,2,0,4.01,0,6.01
			c-2,0-4.01,0-6.01,0c0,2,0,4.01,0,6.01c-14.03,0-28.06,0-42.09,0c0-2,0-4.01,0-6.01c-2,0-4.01,0-6.01,0c0-2,0-4.01,0-6.01
			c2,0,4.01,0,6.01,0c0-2,0-4.01,0-6.01c4.01,0,8.02,0,12.03,0C357.47,344.68,357.47,342.67,357.47,340.67z"/>
		<path class="st2" d="M399.56,340.67c14.03,0,28.06,0,42.09,0c0,6.01,0,12.03,0,18.04c-2,0-4.01,0-6.01,0c0,4.01,0,8.02,0,12.03
			c-2,0-4.01,0-6.01,0c0,2,0,4.01,0,6.01c-2,0-4.01,0-6.01,0c0,1.77,0,3.54,0,5.31c-2,0-4.01,0-6.01,0c0-1.77,0-3.54,0-5.31
			c-2,0-4.01,0-6.01,0c0-2,0-4.01,0-6.01c-2,0-4.01,0-6.01,0c0-4.01,0-8.02,0-12.03c-2,0-4.01,0-6.01,0
			C399.56,352.69,399.56,346.68,399.56,340.67z"/>
		<path class="st2" d="M453.67,340.67c10.02,0,20.04,0,30.06,0c0,2,0,4.01,0,6.01c4.01,0,8.02,0,12.03,0c0,2,0,4.01,0,6.01
			c2,0,4.01,0,6.01,0c0,2,0,4.01,0,6.01c-2,0-4.01,0-6.01,0c0,2,0,4.01,0,6.01c-14.03,0-28.06,0-42.09,0
			C453.67,356.7,453.67,348.68,453.67,340.67z"/>
	</g>
</g>
</svg>
